#!OML:ASF Y:\EmotionMaleHayes\Project 1\Capture day 1\Session 1\Male1.ASF
:FULLY-SPECIFIED
:DEGREES
1
root 10.1607 16.8934 -0.422592 26.4093 67.9082 26.884
lowerback 3.66051 1.09077 -11.7439
upperback 5.06413 1.58091 -3.75337
thorax 3.09182 0.553442 2.62133
lowerneck -23.5186 -0.827872 0.0511815
upperneck 17.1022 -1.44291 1.32669
head 9.25206 -0.507825 0.243884
rclavicle 4.02539e-014 -8.74653e-015
rhumerus -43.2386 39.6425 -108.063
rradius 94.4658
rwrist -11.5701
rhand 0 0
rfingers 0
rthumb 0 0
lclavicle 4.02539e-014 -8.74653e-015
lhumerus -47.0764 -45.1077 109.525
lradius 91.4951
lwrist 12.6558
lhand -9.54831 -29.5099
lfingers 7.12502
lthumb 16.4186 -0.184793
rfemur -8.49259 1.23463 -4.93038
rtibia 21.0819
rfoot -15.0993 -1.10456
rtoes -0.349265
lfemur 3.91366 6.70363 -33.3133
ltibia 9.32433
lfoot -15.8544 11.4633
ltoes 0
2
root 10.0427 16.9488 -0.314007 16.307 66.5613 17.1076
lowerback 5.23598 2.28725 -10.6035
upperback 4.99964 2.893 -2.6261
thorax 1.93689 1.26119 3.07989
lowerneck -23.1599 -0.995299 -0.0879487
upperneck 16.9459 -1.67409 1.567
head 9.14113 -0.599345 0.31759
rclavicle 1.75924e-014 -6.91771e-014
rhumerus -43.1495 39.7644 -108.221
rradius 94.2256
rwrist -11.615
rhand 0 0
rfingers 0
rthumb 0 0
lclavicle 1.75924e-014 -6.91771e-014
lhumerus -47.7015 -44.6949 109.783
lradius 91.7527
lwrist 11.3424
lhand -9.24486 -29.9098
lfingers 7.12502
lthumb 16.7107 -0.609052
rfemur -9.21339 6.34206 -0.057713
rtibia 21.5762
rfoot -15.4216 -3.25749
rtoes -0.541465
lfemur 4.79 7.63458 -28.5407
ltibia 9.04262
lfoot -16.0012 13.1501
ltoes 0
3
root 10.0406 16.947 -0.311022 16.2199 66.6427 17.0814
lowerback 5.29343 2.35266 -10.527
upperback 4.92303 2.96803 -2.68829
thorax 1.81951 1.30928 2.96542
lowerneck -22.5669 -1.08409 -0.0844734
upperneck 16.7361 -1.81781 1.69689
head 8.96902 -0.65579 0.343604
rclavicle -1.12214e-013 -3.18055e-015
rhumerus -43.4928 39.5962 -108.556
rradius 94.263
rwrist -11.6154
rhand 0 0
rfingers 0
rthumb 0 0
lclavicle -1.12214e-013 -3.18055e-015
lhumerus -47.7813 -44.8989 109.66
lradius 91.8325
lwrist 11.6872
lhand -8.9482 -30.1011
lfingers 7.12502
lthumb 16.9963 -0.82471
rfemur -9.09614 6.28252 0.0257226
rtibia 21.5929
rfoot -15.6389 -3.23295
rtoes -1.42037
lfemur 4.79699 7.61562 -28.4423
ltibia 9.15207
lfoot -16.0507 13.1265
ltoes 0
4
root 10.0002 16.9148 -0.292757 17.9907 68.1027 18.2273
lowerback 5.16338 1.85808 -10.7824
upperback 4.68202 2.29478 -2.63346
thorax 1.71566 0.975854 3.19678
lowerneck -22.3624 -1.09719 0.0127673
upperneck 16.6504 -1.84596 1.61182
head 8.90253 -0.674227 0.295446
rclavicle -1.98785e-015 2.78299e-015
rhumerus -43.7092 39.5399 -108.753
rradius 94.3139
rwrist -11.5679
rhand 0 0
rfingers 0
rthumb 0 0
lclavicle -1.98785e-015 2.78299e-015
lhumerus -47.6064 -44.9614 109.362
lradius 91.8805
lwrist 11.4843
lhand -8.64812 -30.1637
lfingers 7.12502
lthumb 17.2851 -0.912353
rfemur -9.63063 5.58262 0.4661
rtibia 21.951
rfoot -15.9471 -4.21699
rtoes -1.87971
lfemur 2.93028 8.861 -27.7169
ltibia 10.9726
lfoot -15.519 10.5572
ltoes 0
5
root 10.0078 16.9265 -0.296347 17.2642 67.687 17.6607
lowerback 5.09044 1.98206 -10.7245
upperback 4.86287 2.48942 -2.59314
thorax 1.92166 1.05962 3.20317
lowerneck -22.4624 -1.23007 0.369842
upperneck 16.3763 -2.01699 1.03588
head 8.81533 -0.79988 0.0161409
rclavicle -2.20651e-014 1.74931e-014
rhumerus -43.565 39.8618 -108.714
rradius 94.2343
rwrist -11.428
rhand 0 0
rfingers 0
rthumb 0 0
lclavicle -2.20651e-014 1.74931e-014
lhumerus -47.2333 -44.7821 109.036
lradius 91.8599
lwrist 10.9051
lhand -8.63762 -30.2825
lfingers 7.12502
lthumb 17.2952 -1.03211
rfemur -9.53308 5.70304 0.486895
rtibia 22.0103
rfoot -16.0187 -3.77295
rtoes -2.78106
lfemur 3.41273 8.46495 -27.7893
ltibia 10.4996
lfoot -15.6043 11.3631
ltoes -5.553
6
root 10.0135 16.9356 -0.296036 16.6635 67.6561 17.141
lowerback 5.03544 2.01524 -10.6065
upperback 4.97882 2.55373 -2.50196
thorax 2.06538 1.08318 3.23437
lowerneck -22.4087 -1.81593 1.10405
upperneck 15.7908 -2.85578 0.138181
head 8.58058 -1.25569 -0.520187
rclavicle 1.92821e-014 3.65764e-014
rhumerus -43.487 40.0824 -108.743
rradius 94.0439
rwrist -11.0757
rhand 0 0
rfingers 0
rthumb 0 0
lclavicle 1.92821e-014 3.65764e-014
lhumerus -47.0171 -44.728 108.916
lradius 91.7848
lwrist 10.7295
lhand -9.35955 -30.5343
lfingers 7.12502
lthumb 16.6003 -1.2243
rfemur -9.31547 5.62818 0.687905
rtibia 22.0481
rfoot -16.199 -3.2916
rtoes -3.21841
lfemur 3.68769 8.08196 -27.7025
ltibia 10.2656
lfoot -15.6951 11.732
ltoes -5.13461
7
root 10.0169 16.9413 -0.292815 16.2659 67.5865 16.8326
lowerback 5.10556 2.10279 -10.5569
upperback 4.98552 2.66105 -2.46455
thorax 2.01843 1.13916 3.23865
lowerneck -22.3243 -1.98346 0.928803
upperneck 15.7977 -3.04987 0.247038
head 8.57209 -1.34591 -0.480374
rclavicle 1.46107e-014 -1.82882e-014
rhumerus -43.5949 40.1566 -108.908
rradius 93.8662
rwrist -10.911
rhand 0 0
rfingers 0
rthumb 0 0
lclavicle 1.46107e-014 -1.82882e-014
lhumerus -47.1623 -44.8325 109.055
lradius 91.7497
lwrist 10.7867
lhand -10.486 -30.8045
lfingers 7.12502
lthumb 15.5156 -1.407
rfemur -9.13894 5.61002 0.795515
rtibia 22.0229
rfoot -16.3216 -2.73467
rtoes -2.64083
lfemur 3.91932 7.81008 -27.6825
ltibia 10.1069
lfoot -15.7996 12.0147
ltoes -4.36747
8
root 10.0159 16.9465 -0.28859 15.8181 67.467 16.4647
lowerback 5.20084 2.2057 -10.4788
upperback 4.98719 2.78679 -2.45665
thorax 1.952 1.20691 3.19426
lowerneck -21.9678 -2.09165 0.50506
upperneck 15.5707 -3.17555 0.825289
head 8.45158 -1.37093 -0.22698
rclavicle -1.73937e-014 2.94201e-014
rhumerus -43.7579 40.2198 -109.076
rradius 93.8758
rwrist -11.0567
rhand 0 0
rfingers 0
rthumb 0 0
lclavicle -1.73937e-014 2.94201e-014
lhumerus -47.2555 -45.0162 109.086
lradius 91.6908
lwrist 10.8245
lhand -11.2087 -31.0386
lfingers 7.12502
lthumb 14.8194 -1.58852
rfemur -9.07502 5.61902 0.948806
rtibia 21.9963
rfoot -16.2801 -2.38653
rtoes -2.7007
lfemur 4.07308 7.66256 -27.5958
ltibia 10.0445
lfoot -15.938 12.291
ltoes -4.11536
9
root 10.0174 16.9492 -0.284804 15.4834 67.7355 16.1983
lowerback 5.28743 2.17911 -10.2888
upperback 5.02593 2.74957 -2.42625
thorax 1.95329 1.1923 3.12081
lowerneck -21.7252 -2.1635 0.363336
upperneck 15.3761 -3.26832 1.04409
head 8.35101 -1.40279 -0.138455
rclavicle -3.49861e-014 -7.55382e-015
rhumerus -43.8215 40.2128 -109.14
rradius 93.9501
rwrist -11.1197
rhand 0 0
rfingers 0
rthumb 0 0
lclavicle -3.49861e-014 -7.55382e-015
lhumerus -47.1475 -45.1652 108.955
lradius 91.6407
lwrist 11.0152
lhand -11.2522 -31.2444
lfingers 7.12502
lthumb 14.7776 -1.79125
rfemur -8.82116 5.27862 1.21835
rtibia 21.9871
rfoot -16.39 -2.13751
rtoes -3.16135
lfemur 4.1297 7.56297 -27.3849
ltibia 10.1154
lfoot -16.0397 12.2484
ltoes -4.63423
10
root 10.0183 16.9506 -0.277294 15.4048 68.0614 16.1786
lowerback 5.34014 2.137 -10.2148
upperback 5.05332 2.69172 -2.39149
thorax 1.96066 1.16414 3.11775
lowerneck -21.8131 -2.18096 0.537048
upperneck 15.4966 -3.30321 0.819196
head 8.39953 -1.43144 -0.248941
rclavicle 5.07895e-014 -3.81667e-014
rhumerus -43.8409 40.1814 -109.182
rradius 93.9556
rwrist -11.049
rhand 0 0
rfingers 0
rthumb 0 0
lclavicle 5.07895e-014 -3.81667e-014
lhumerus -47.0718 -45.1643 108.865
lradius 91.6861
lwrist 11.3327
lhand -11.0274 -31.3846
lfingers 7.12502
lthumb 14.9941 -1.9475
rfemur -8.51933 4.94984 1.39779
rtibia 22.0417
rfoot -16.7113 -1.80942
rtoes -2.48526
lfemur 4.18452 7.46504 -27.2399
ltibia 10.1252
lfoot -15.9742 12.1341
ltoes -5.19584
11
root 10.0112 16.9527 -0.265383 15.3473 68.1173 16.0974
lowerback 5.34008 2.20608 -10.2441
upperback 5.00663 2.77674 -2.37609
thorax 1.89871 1.20897 3.14461
lowerneck -22.0832 -2.24811 0.739445
upperneck 15.8583 -3.4155 0.569273
head 8.56014 -1.49351 -0.38753
rclavicle 3.18055e-015 1.51076e-014
rhumerus -43.8953 39.9781 -109.224
rradius 93.9337
rwrist -10.8056
rhand -16.7695 -33.055
rfingers 7.12502
rthumb 9.4577 -62.8228
lclavicle 3.18055e-015 1.51076e-014
lhumerus -47.2009 -45.2085 108.93
lradius 91.748
lwrist 11.4451
lhand -10.8881 -31.4862
lfingers 7.12502
lthumb 15.1283 -2.05907
rfemur -8.48458 4.95018 1.54106
rtibia 22.0985
rfoot -16.866 -1.70029
rtoes -2.26649
lfemur 4.1267 7.45175 -27.1042
ltibia 10.1626
lfoot -15.8627 12.1068
ltoes -5.15339
12
root 10.0035 16.9565 -0.25276 14.8882 68.0165 15.6153
lowerback 5.32597 2.35867 -10.1262
upperback 4.98331 2.9809 -2.35761
thorax 1.85824 1.31541 3.08866
lowerneck -22.4394 -2.30623 0.78347
upperneck 16.3284 -3.52858 0.606738
head 8.78218 -1.53116 -0.406057
rclavicle 1.78906e-014 1.19271e-014
rhumerus -43.9228 39.6973 -109.214
rradius 93.9263
rwrist -10.4275
rhand -16.3681 -33.4668
rfingers 7.12502
rthumb 9.84507 -63.2166
lclavicle 1.78906e-014 1.19271e-014
lhumerus -47.2609 -45.4499 108.965
lradius 91.6939
lwrist 11.2721
lhand -10.8098 -31.5901
lfingers 7.12502
lthumb 15.2037 -2.16873
rfemur -8.49712 5.17347 1.84556
rtibia 22.0782
rfoot -16.9063 -1.79061
rtoes -3.38994
lfemur 4.12045 7.46425 -26.8318
ltibia 10.1772
lfoot -15.8403 12.2722
ltoes -5.2031
13
root 10.0047 16.9566 -0.240886 14.9111 68.0166 15.6293
lowerback 5.23234 2.44551 -10.1199
upperback 4.97725 3.10872 -2.38708
thorax 1.88972 1.37861 3.05188
lowerneck -22.5741 -2.29078 0.91411
upperneck 16.5462 -3.54272 0.54967
head 8.87682 -1.53188 -0.452326
rclavicle 3.06128e-014 1.74931e-014
rhumerus -44.0879 39.5699 -109.281
rradius 93.9321
rwrist -9.8137
rhand -15.6937 -33.3785
rfingers 7.12502
rthumb 10.4956 -63.0965
lclavicle 3.06128e-014 1.74931e-014
lhumerus -47.2813 -45.5754 108.932
lradius 91.6066
lwrist 10.7661
lhand -11.1146 -31.7979
lfingers 7.12502
lthumb 14.9101 -2.35455
rfemur -8.39288 5.18796 1.90226
rtibia 21.9737
rfoot -16.9775 -1.77028
rtoes -4.34839
lfemur 4.1495 7.4022 -26.8094
ltibia 10.1503
lfoot -15.8342 12.3867
ltoes -5.60218
